<svg xmlns="http://www.w3.org/2000/svg" width="1024" height="1024">
  <path fill="#CA5D91" d="M768.522 361.269q3.599 1.726 7.079 3.683l.086 7.436-.273 64.465c-.223 1.604-.162 3.945-1.322 5.038-10.269.772-9.166 4.632-16.298 6.723.353-17.781-.853-35.588-.24-53.389 1.542 4.449.39 9.247 1.351 13.832l.46.176c2.211-4.3 5.902-7.721 8.858-11.518 4.687-6.018 4.579-16.37 5.817-23.699-.763-2.391-1.32-5.395-2.807-7.436-2.124-2.914-5.633-2.952-8.9-3.37 1.688-.355 3.422-.091 5.066-.721 1.031-.395.653-.1 1.123-1.22Z"/>
  <path fill="#80EEF2" d="M248.546 384.77c.027.171.056.343.081.514.66 4.569-.542 23.985 1.347 26.367 3.431.52 11.265 2.628 14.026 1.202 3.088-3.358 2.082-10.616 2.608-15.103.581 10.61.199 21.368.171 31.996.037 7.181.185 14.381.07 21.56l-.637-2.27-.364.246c-.149 4.624.998 10.458.022 14.859-5.353 1.271-11.13 3.173-16.139 5.479-.133-3.343-.035-6.66-1.2-9.836-.389-4.297-.104-8.844-.118-13.171q-.724-30.924.133-61.843Z"/>
  <defs>
    <linearGradient id="a" x1="273.6741" x2="241.94139" y1="565.23004" y2="471.58624" gradientUnits="userSpaceOnUse">
      <stop offset="0" stop-color="#349599"/>
      <stop offset="1" stop-color="#6AECEA"/>
    </linearGradient>
  </defs>
  <path fill="url(#a)" d="M249.731 469.62c5.009-2.306 10.786-4.208 16.139-5.479.976-4.401-.171-10.235-.022-14.859l.364-.246.637 2.27.282 117.624c-2.088-.053-4.268-.175-6.342.075-3.065.37-9.626 2.851-12.124 2.335q-.853-55.777-.134-111.556c1.165 3.176 1.067 6.493 1.2 9.836Z"/>
  <defs>
    <linearGradient id="b" x1="276.24344" x2="273.69586" y1="694.52356" y2="569.20123" gradientUnits="userSpaceOnUse">
      <stop offset="0" stop-color="#1D364F"/>
      <stop offset="1" stop-color="#388C93"/>
    </linearGradient>
  </defs>
  <path fill="url(#b)" d="M248.665 571.34c2.498.516 9.059-1.965 12.124-2.335 2.074-.25 4.254-.128 6.342-.075.148 29.424.755 58.959.191 88.379 11.269 6.784 23.573 13.347 35.608 18.649-.024-1.884-.159-3.833.003-5.708l.425-.185c.077 15.322.392 30.694.042 46.01-.926-6.297-.352-13.47-.355-19.855-17.563-10.964-36.141-20.38-54.022-30.823-.796-23.953-.471-48.127-.531-72.098-.018-7.316.471-14.652.173-21.959Z"/>
  <path fill="#E2D5E3" d="M444.496 252.74c.3-.027.601-.052.901-.083.902-.093 1.42-.281 2.185-.793l.879.228.087.669c.477 3.485 2.126 4.567 4.828 6.603 1.647 1.24 4.866 3.064 5.428 5.037l-.868 1.486-45.588 25.87c-7.651 4.322-15.644 9.742-23.711 13.125-4.589 3.407-9.962 6.172-14.938 8.979q-13.859 7.759-27.806 15.359c-18.037 9.938-35.713 20.509-53.608 30.697-5.455 3.107-19.44 9.607-23.436 13.089-.201-2.437-1.134-3.606-2.497-5.556-.728-1.042.111.179-.635-1.148-.708-1.26-2.686-2.739-4.085-3.112l-.256.739c1.2 2.339 4.423 3.818 5.215 6.065.769 2.184-1.404 6.728.161 7.951.01 6.401.624 13.484-.144 19.805-.526 4.487.48 11.745-2.608 15.103-2.761 1.426-10.595-.682-14.026-1.202-1.889-2.382-.687-21.798-1.347-26.367-.025-.171-.054-.343-.081-.514-.258-6.987-.105-14.006-.067-20.997 6.914-4.613 14.347-8.579 21.557-12.719q20.991-12.049 42.13-23.836c23.969-13.579 47.624-28.393 72.37-40.512 11.147-7.651 23.898-14.069 35.703-20.693 7.841-4.399 15.99-9.807 24.257-13.273Z"/>
  <path fill="#F0AFCB" d="M444.496 252.74c.3-.027.601-.052.901-.083.902-.093 1.42-.281 2.185-.793l.879.228.087.669c.477 3.485 2.126 4.567 4.828 6.603 1.647 1.24 4.866 3.064 5.428 5.037l-.868 1.486-45.588 25.87c-7.651 4.322-15.644 9.742-23.711 13.125.515-.967.922-1.677 1.811-2.352 5.046-3.835 11.506-6.773 17.062-9.866l32.636-18.142c-3.977-.857-10.16-.91-13.064-3.939-1.506-1.57-1.134-3.845-1.081-5.861-8.244 4.02-35.053 21.935-41.465 21.984 11.147-7.651 23.898-14.069 35.703-20.693 7.841-4.399 15.99-9.807 24.257-13.273Z"/>
  <defs>
    <linearGradient id="c" x1="657.71014" x2="557.01501" y1="255.5145" y2="359.8241" gradientUnits="userSpaceOnUse">
      <stop offset="0" stop-color="#F55A96"/>
      <stop offset="1" stop-color="#EFA9CA"/>
    </linearGradient>
  </defs>
  <path fill="url(#c)" d="M511.383 216.066c14.377 4.883 28.252 14.768 41.379 22.346l58.509 33.391 103.578 58.668c17.857 10.123 36.345 19.818 53.673 30.798-.47 1.12-.092.825-1.123 1.22-1.644.63-3.378.366-5.066.721-2.812 1.548-7.031 3.346-8.096 6.65-.357 1.105.051 2.375.316 3.464L647.844 313.3q-67.694-39.209-136.072-77.216c-18.311 9.122-35.836 20.054-53.836 29.803l.868-1.486c-.562-1.973-3.781-3.797-5.428-5.037-2.702-2.036-4.351-3.118-4.828-6.603l-.087-.669-.879-.228c-.765.512-1.283.7-2.185.793-.3.031-.601.056-.901.083 11.102-7.093 23.23-13.089 34.746-19.524 10.295-5.752 21.047-13.159 32.141-17.15Z"/>
  <path fill="#1F214A" d="M747.092 383.216q5.4-3.258 10.907-6.331c-.148 6.094-.498 12.25-.445 18.34-.613 17.801.593 35.608.24 53.389 7.132-2.091 6.029-5.951 16.298-6.723 1.16-1.093 1.099-3.434 1.322-5.038l.063 155.544-.042 47.173c-.01 7.627.635 16.036-.234 23.583-5.208 5.119-62.005 36.164-71.194 39.707 9.826-12.191 13.624-24.623 12.381-40.229l.368-.115.561.838c4.763-.37 23.537-11.122 27.238-14.796.419-.416 1.029-1.093 1.28-1.621 2.14-4.502.625-78.744.606-90.038.829-25.981-.086-52.028.185-78.022.51-1.685.272-3.579.027-5.284-.859-16.89-.559-33.902-.384-50.803.075-7.25.741-15.065.159-22.261-.094-1.17-.134-1.179-1-1.895l1.15-1.02c1.368-4.078.602-10.045.514-14.398Z"/>
  <defs>
    <linearGradient id="d" x1="796.04633" x2="736.68829" y1="595.78491" y2="469.21545" gradientUnits="userSpaceOnUse">
      <stop offset="0" stop-color="#462049"/>
      <stop offset="1" stop-color="#D34788"/>
    </linearGradient>
  </defs>
  <path fill="url(#d)" d="M774.092 441.891c1.16-1.093 1.099-3.434 1.322-5.038l.063 155.544-.042 47.173c-.01 7.627.635 16.036-.234 23.583-.474-5.448-.134-11.163-.239-16.65-.264-13.652-.516-27.223-.462-40.885-1.296.893-2.6 1.834-4.077 2.403-2.68 1.034-8.798 1.323-10.506 3.318-2.831 3.308-1.429 27.07-1.512 32.817l-.621-.668.373.894c-.629-17.566.175-35.164-.135-52.732q-.829-41.466-.438-82.937c.011-17.924-.3-36.014.329-53.92-.28-1.987-.111-4.166-.119-6.179 7.132-2.091 6.029-5.951 16.298-6.723Z"/>
  <path fill="#EC7CA4" d="M757.794 448.614c7.132-2.091 6.029-5.951 16.298-6.723 1.082 2.751.235 8.195.137 11.264-1.927.644-4.08 1.062-5.926 1.87-3.176 1.39-6.016 3.194-9.377 4.164-.293-1.447-.537-3-1.013-4.396-.28-1.987-.111-4.166-.119-6.179ZM542.874 267.749c11.031 5.801 22.785 12.201 33.099 19.166-1.421.521-2.417.86-3.248 2.255-.106.178-.162.382-.242.572-8.437-4.208-22.829-11.192-29.874-16.796 1.441.123 2.469.27 3.823-.381-.054-1.444-2.561-3.572-3.558-4.816Z"/>
  <path fill="#C6E7F2" d="M266.752 377.945c-1.565-1.223.608-5.767-.161-7.951-.792-2.247-4.015-3.726-5.215-6.065l.256-.739c1.399.373 3.377 1.852 4.085 3.112.746 1.327-.093.106.635 1.148 1.363 1.95 2.296 3.119 2.497 5.556.218.346.351.765.655 1.04 2.37 2.136 16.862 9.346 20.753 11.569l86.163 48.308c-1.167 1.241-2.184 2.427-3.127 3.847-14.392-7.457-28.507-15.708-42.67-23.605-21.386-11.924-42.802-23.743-63.871-36.22Z"/>
  <path fill="#B7C6D8" d="m376.42 433.923 90.693 50.282c14.576 8.003 29.112 16.84 44.112 23.968 10.776-5.377 21.198-11.786 31.689-17.72q35.105-20.096 70.491-39.692c-.001 2.386.161 3.803 1.273 5.938l-64.999 36.598-23.426 12.916c-3.687 2.031-7.868 3.918-11.305 6.326-2.646.904-4.559.424-7.162-.445l-54.696-30.273c-26.67-14.495-53.635-28.646-79.797-44.051.943-1.42 1.96-2.606 3.127-3.847Z"/>
  <path fill="#EC7CA4" d="M762.333 363.21c3.267.418 6.776.456 8.9 3.37 1.487 2.041 2.044 5.045 2.807 7.436-1.238 7.329-1.13 17.681-5.817 23.699-2.956 3.797-6.647 7.218-8.858 11.518l-.46-.176c-.961-4.585.191-9.383-1.351-13.832-.053-6.09.297-12.246.445-18.34q-5.507 3.073-10.907 6.331c-16.18 9.673-32.903 18.593-49.388 27.738l-83.026 45.745c-1.112-2.135-1.274-3.552-1.273-5.938 9.461-5.895 19.376-11.115 29.132-16.508l45.897-25.297 37.458-20.61c9.452-5.192 18.831-10.567 28.661-15.022-.265-1.089-.673-2.359-.316-3.464 1.065-3.304 5.284-5.102 8.096-6.65Z"/>
  <path fill="#F0AFCB" d="M293.343 373.181c7.473-5.192 15.705-9.485 23.624-13.964l35.306-19.848c1.478 12.132 3.23 56.674-.887 66.245q-29.148-15.99-58.043-32.433Z"/>
  <path fill="#EC7CA4" d="M439.412 290.79c7.214-4.866 15.203-8.993 22.755-13.315q22.726-12.987 45.775-25.392c.13 1.844.294 3.642.125 5.487l-.037 43.894c.01 5.633.79 12.255.083 17.77-.104.808-.709 1.353-1.246 1.906.184 2.08.355 4.246-.381 6.247q-33.781-17.852-67.074-36.597Z"/>
  <defs>
    <linearGradient id="e" x1="474.92685" x2="473.38815" y1="253.33109" y2="324.80872" gradientUnits="userSpaceOnUse">
      <stop offset="0" stop-color="#F3AACD"/>
      <stop offset="1" stop-color="#EFCDE3"/>
    </linearGradient>
  </defs>
  <path fill="url(#e)" d="M439.412 290.79c7.214-4.866 15.203-8.993 22.755-13.315q22.726-12.987 45.775-25.392c.13 1.844.294 3.642.125 5.487-7.411 3.012-14.179 7.715-21.098 11.703q-18.422 10.699-37.368 20.44l34.895 18.665c7.54 4.026 15.439 7.715 22.371 12.762.184 2.08.355 4.246-.381 6.247q-33.781-17.852-67.074-36.597Z"/>
  <path fill="#CA5D91" d="m507.942 252.083 3.277-1.889c6.599 3.204 12.871 6.956 19.258 10.552 4.1 2.308 8.484 4.402 12.397 7.003.997 1.244 3.504 3.372 3.558 4.816-1.354.651-2.382.504-3.823.381 7.045 5.604 21.437 12.588 29.874 16.796.08-.19.136-.394.242-.572.831-1.395 1.827-1.734 3.248-2.255l6.986 3.811c-23.358 14.13-48.044 26.361-72.261 38.936l-4.212-2.275c.736-2.001.565-4.167.381-6.247.537-.553 1.142-1.098 1.246-1.906.707-5.515-.073-12.137-.083-17.77l.037-43.894c.169-1.845.005-3.643-.125-5.487Z"/>
  <path fill="#F0AFCB" d="m507.942 252.083 3.277-1.889c6.599 3.204 12.871 6.956 19.258 10.552 4.1 2.308 8.484 4.402 12.397 7.003.997 1.244 3.504 3.372 3.558 4.816-1.354.651-2.382.504-3.823.381-5.113-2.863-10.025-6.029-15.108-8.925-4.134-2.356-8.503-4.182-12.486-6.815q-.175 31.625.031 63.25c8.161-4.056 16.093-8.523 24.226-12.607 9.802-4.922 24.768-11.258 33.211-18.107.08-.19.136-.394.242-.572.831-1.395 1.827-1.734 3.248-2.255l6.986 3.811c-23.358 14.13-48.044 26.361-72.261 38.936l-4.212-2.275c.736-2.001.565-4.167.381-6.247.537-.553 1.142-1.098 1.246-1.906.707-5.515-.073-12.137-.083-17.77l.037-43.894c.169-1.845.005-3.643-.125-5.487Z"/>
  <path fill="#325873" d="M513.755 576.456c-.131-7.883.469-15.73.541-23.608.071-7.592-.945-16.719.573-24.126l-.116 63.24c-.029 9.206.929 20.232-.211 29.171l-6.624.206.008-.247c.736-22.296-1.101-46.23.501-68.183 1.1 8.876.832 18.262.83 27.2 1.439-1.285 2.987-2.453 4.498-3.653Z"/>
  <path fill="#5F7395" d="M507.786 512.094c2.603.869 4.516 1.349 7.162.445-.022 5.37.149 10.822-.079 16.183-1.518 7.407-.502 16.534-.573 24.126-.072 7.878-.672 15.725-.541 23.608-1.511 1.2-3.059 2.368-4.498 3.653.002-8.938.27-18.324-.83-27.2-.366-7.263 1.367-36.607-.641-40.815Z"/>
  <defs>
    <linearGradient id="f" x1="662.95148" x2="639.42761" y1="597.99756" y2="493.93399" gradientUnits="userSpaceOnUse">
      <stop offset="0" stop-color="#562C62"/>
      <stop offset="1" stop-color="#BA4F8A"/>
    </linearGradient>
  </defs>
  <path fill="url(#f)" d="M745.428 398.634c.866.716.906.725 1 1.895.582 7.196-.084 15.011-.159 22.261-.175 16.901-.475 33.913.384 50.803.245 1.705.483 3.599-.027 5.284-.271 25.994.644 52.041-.185 78.022-.238 1.319-.309 3.61-1.46 4.439-3.369 2.428-17.767 10.983-21.145 12.13-1.491.507-3.37.376-4.891.046-.68-.147-1.237-.407-1.834-.756-7.325 4.426-14.934 7.963-22.336 12.164-5.791 3.287-11.289 7.311-17.172 10.371-1.386.721-2.593 1.297-4.144 1.508-.382-2.91-.505-5.767-.589-8.697l.909-.699-.924.096-.145-1.419c-1.629.346-1.871.395-3.064 1.538-.561 2.072-.607 4.149-2.068 5.732-2.522.724-4.869-.367-7.046-1.597-2.602-1.47-5.077-3.127-7.805-4.366-2.641 1.44-4.921 3.115-8.063 2.684l-.666-.61c-3.626-3.277-20.005-10.719-25.163-12.787-6.802 3.265-14.374 6.666-20.831 10.538-.236-4.918.694-18.952-.952-22.595l-.517.416c-.526 5.95-.131 12.117.059 18.092-2.683-2.93-5.304-4.024-9.307-4.244-15.215-.837-24.761 10.387-30.709 10.873-.236-.144-.475-.283-.708-.432-2.233-1.428-2.559-4.244-5.751-3.636-7.639 1.453-14.649 10-22.304 12.361l-.687-2.239-.127-.993c.354-21.797-.089-43.574.412-65.372-.036-2.522-.483-6.474.634-8.737 1.055-.34 1.95-.836 2.927-1.35 9.32-6.316 19.542-11.62 29.364-17.122 11.569-6.481 23.029-13.166 34.652-19.549l2.993-2.31 2.847-1.315 1.584-.824c18.677-10.247 36.857-21.373 55.586-31.538 5.329-4.151 19.835-11.987 26.113-14.547 19.916-11.98 40.957-22.293 61.315-33.519Z"/>
  <path fill="#5D2C65" d="m724.424 490.499.392.417c-15.116 8.19-30.604 15.659-46.035 23.205-1.196.585-2.613 1.151-3.069 2.426 2.005 2.23 13.656 7.03 17.536 9.154 4.93 2.697 9.948 5.505 14.399 8.947.149.115.295.233.443.35-7.651-3.02-14.736-6.76-21.906-10.748-4.595-2.46-9.151-4.548-14.11-6.176.703 7.529.383 15.27.175 22.818-.482-3.018-.987-20.35-.456-22.773 1.285-.916 2.79.527 4.426.154-.89-.654-.983-.699-1.337-1.734.646-1.46 1.452-1.834 2.845-2.641 5.309-3.071 11.348-5.496 16.863-8.222 9.998-4.943 19.884-10.135 29.834-15.177Z"/>
  <path fill="#5D2C65" d="M668.57 471.352c.352 2.087.68 3.849 1.607 5.762l.73.512c.839-.431 1.231-.678 1.734-1.484.712 4.09.195 8.915.161 13.084q-.187 12.147.138 24.292c6.408-2.706 12.461-6.425 18.886-8.964l.843.138c-5.576 3.848-12.391 5.84-18.237 9.259-.637-.043-1.109.116-1.552-.422-2.344-2.848.257-12.421-1.576-13.352l-1.483.183c-2.124 3.201.779 8.935-1.382 12.2-9.308-1.186-25.873-13.4-35.481-17.009l-.015.561c5.367 2.651 10.449 5.965 15.73 8.774 5.544 2.95 11.723 5.526 16.993 8.901 1.037.665 1.498 1.019 2.17 2.065-1.805 3.992-17.283 9.716-21.628 12.85l.412-.45.242.797-.512-.319c4.822-2.083 16.604-6.716 19.921-9.978.837-.823 3.224-4.463 4.009-4.209.485 3.952.458 8.913-.185 12.851-.1-1.987.268-6.898-1.036-8.109-3.612.431-5.155 1.965-8.322 3.4-9.353 4.239-23.255 12.982-32.3 15.438 10.907-8.361 29.812-14.418 39.212-22.606-18.709-9.282-36.725-19.958-55.151-29.8-3.564-2.543-7.83-4.522-11.668-6.655l1.584-.824.348.919c4.211 2.789 63.372 32.657 65.249 32.625.562-6.075.115-12.21.092-18.306-.028-7.371.259-14.757.467-22.124Z"/>
  <path fill="#6C6186" d="M527.413 529.445c2.083-1.003 2.804-.925 4.984-.15 5.801 2.061 11.296 5.359 16.502 8.618 4.006 2.189 7.939 4.367 12.202 6.031 5.725 2.143 10.276 6.273 15.389 9.517 3.723 2.363 7.683 4.362 11.39 6.737-5.472 4.093-56.754 35.681-59.823 35.64l-1.056-1.021c.354-21.797-.089-43.574.412-65.372Z"/>
  <path fill="#CA5D91" d="M658 446.7c5.329-4.151 19.835-11.987 26.113-14.547-2.116 1.866-4.616 3.194-7.047 4.601l-2.848 1.96c-2.578 3.98-1.482 30.723-1.577 37.428-.503.806-.895 1.053-1.734 1.484l-.73-.512c-.927-1.913-1.255-3.675-1.607-5.762-.208 7.367-.495 14.753-.467 22.124.023 6.096.47 12.231-.092 18.306-1.877.032-61.038-29.836-65.249-32.625l-.348-.919c18.677-10.247 36.857-21.373 55.586-31.538Z"/>
  <path fill="#171B2E" d="M658 446.7c5.329-4.151 19.835-11.987 26.113-14.547-2.116 1.866-4.616 3.194-7.047 4.601l-2.848 1.96c-2.578 3.98-1.482 30.723-1.577 37.428-.503.806-.895 1.053-1.734 1.484l-.73-.512c-.927-1.913-1.255-3.675-1.607-5.762-.482-9.743-.066-19.744-.074-29.512-3.518 1.592-6.932 3.36-10.496 4.86Z"/>
  <path fill="#CA5D91" d="M600.83 479.062c3.838 2.133 8.104 4.112 11.668 6.655 18.426 9.842 36.442 20.518 55.151 29.8-9.4 8.188-28.305 14.245-39.212 22.606-6.248 2.305-25.184 13.1-30.496 17.412.347-21.161-.707-42.44.088-63.572l-.046-11.586 2.847-1.315Z"/>
  <path fill="#EC7CA4" d="M600.83 479.062c3.838 2.133 8.104 4.112 11.668 6.655-2.577.036-4.549-1.697-6.489-3.195-.507 6.311-.878 12.802-2.844 18.858q.24-7.92.714-15.83c-2.481 1.964-4.304 3.591-5.85 6.413l-.046-11.586 2.847-1.315Z"/>
  <path fill="#CA5D91" d="m594.99 482.687 2.993-2.31.046 11.586c-.795 21.132.259 42.411-.088 63.572-.28.487-.057.16-.879.799-5.018-1.117-22.979-12.419-29.552-15.55-1.717-.457-2.681-.949-4.418-.479-.894 1.176-1.429 2.276-1.991 3.639-4.263-1.664-8.196-3.842-12.202-6.031-5.206-3.259-10.701-6.557-16.502-8.618-2.18-.775-2.901-.853-4.984.15-.036-2.522-.483-6.474.634-8.737 1.055-.34 1.95-.836 2.927-1.35 9.32-6.316 19.542-11.62 29.364-17.122 11.569-6.481 23.029-13.166 34.652-19.549Z"/>
  <path fill="#1F214A" d="m594.99 482.687 2.993-2.31.046 11.586c-.795 21.132.259 42.411-.088 63.572-.28.487-.057.16-.879.799-5.018-1.117-22.979-12.419-29.552-15.55-1.717-.457-2.681-.949-4.418-.479-.894 1.176-1.429 2.276-1.991 3.639-4.263-1.664-8.196-3.842-12.202-6.031-5.206-3.259-10.701-6.557-16.502-8.618-2.18-.775-2.901-.853-4.984.15-.036-2.522-.483-6.474.634-8.737 1.055-.34 1.95-.836 2.927-1.35l36.949 20.359c8.986 4.928 17.969 9.52 26.617 15.053.897-8.509.587-17.349.615-25.905l-.165-46.178Z"/>
  <path fill="#5F7395" d="M552.492 532.675c4.929 2.488 10.547 4.912 15.018 8.109-1.717-.457-2.681-.949-4.418-.479-.894 1.176-1.429 2.276-1.991 3.639-4.263-1.664-8.196-3.842-12.202-6.031 1.778.201 4.158.727 5.897.265.982-.26.619-.041 1.164-.987l-.624-1.753c-1.029-.875-1.925-1.773-2.844-2.763Z"/>
  <path fill="#56A0AF" d="M528.047 520.708c5.038.567 20.951 8.535 24.445 11.967.919.99 1.815 1.888 2.844 2.763l.624 1.753c-.545.946-.182.727-1.164.987-1.739.462-4.119-.064-5.897-.265-5.206-3.259-10.701-6.557-16.502-8.618-2.18-.775-2.901-.853-4.984.15-.036-2.522-.483-6.474.634-8.737Z"/>
  <path fill="#CA5D91" d="M745.428 398.634c.866.716.906.725 1 1.895.582 7.196-.084 15.011-.159 22.261-.175 16.901-.475 33.913.384 50.803.245 1.705.483 3.599-.027 5.284l-2.757 1.034-.244-.273c.801-.758 1.283-1.042 2.346-1.337l-.422-.447c-4.633.147-42.91 23.446-52.88 26.838l-.843-.138c-6.425 2.539-12.478 6.258-18.886 8.964q-.325-12.145-.138-24.292c.034-4.169.551-8.994-.161-13.084.095-6.705-1.001-33.448 1.577-37.428l2.848-1.96c2.431-1.407 4.931-2.735 7.047-4.601 19.916-11.98 40.957-22.293 61.315-33.519Z"/>
  <path fill="#5D2C65" d="m674.218 438.714 2.848-1.96q25.4 14.271 51.087 28.019c5.609 3.013 11.373 7.221 17.345 9.364.374-.163.826-.306 1.155-.544.245 1.705.483 3.599-.027 5.284l-2.757 1.034-.244-.273c.801-.758 1.283-1.042 2.346-1.337l-.422-.447c-4.633.147-42.91 23.446-52.88 26.838l-.843-.138c4.805-3.487 11.454-5.943 16.829-8.681 12.042-6.132 24.146-12.319 35.826-19.12-4.611-2.559-9.467-4.622-14.098-7.139l-56.165-30.9Z"/>
  <defs>
    <linearGradient id="g" x1="728.48035" x2="709.62347" y1="477.25375" y2="409.74136" gradientUnits="userSpaceOnUse">
      <stop offset="0" stop-color="#D74083"/>
      <stop offset="1" stop-color="#F370A1"/>
    </linearGradient>
  </defs>
  <path fill="url(#g)" d="M745.428 398.634c.866.716.906.725 1 1.895.582 7.196-.084 15.011-.159 22.261-.175 16.901-.475 33.913.384 50.803-.329.238-.781.381-1.155.544-5.972-2.143-11.736-6.351-17.345-9.364q-25.687-13.748-51.087-28.019c2.431-1.407 4.931-2.735 7.047-4.601 19.916-11.98 40.957-22.293 61.315-33.519Z"/>
  <path fill="#171B2E" d="M433.935 293.661c2.512-.553 3.595-1.154 5.477-2.871q33.293 18.745 67.074 36.597l4.212 2.275c24.217-12.575 48.903-24.806 72.261-38.936l3.417 2.049c24.374 12.33 47.953 26.232 71.585 39.914 1.167.6 2.473 1.141 3.525 1.921 22.605 12.056 44.619 25.011 66.628 38.111-22.861 13.247-46.211 25.832-69.307 38.684-1.345.757-2.749 1.687-4.17 2.269q-22.132 12.895-44.679 25.048c-8.358 4.592-16.724 9.696-25.315 13.803-1.287.738-2.628 1.644-3.99 2.213q-32.104 18.74-64.669 36.668l-5.115 2.97-3.824-2.184c-22.281-11.732-44.415-24.126-66.254-36.661-1.765-1.013-3.562-1.764-5.454-2.507l-4.527-2.668c-21.057-11.654-41.76-24.369-63.111-35.427-2.299-.816-4.631-2.228-6.563-3.692-3.014-2.16-6.496-3.837-9.75-5.623 4.117-9.571 2.365-54.113.887-66.245q3.827-2.313 7.611-4.698c1.514-1.771 4.993-3.027 7.127-3.963l63.298-34.791 3.626-2.256Z"/>
  <path fill="#F0AFCB" d="m508.172 335.865-.167 6.898c-10.204 5.903-20.661 11.41-31.022 17.033-8.438 4.579-16.857 9.54-25.709 13.268 9.318 5.359 19.223 9.882 28.687 15.014 6.246 3.386 22.33 13.367 27.94 15.027-.533 2.102-1.088 4.139-1.867 6.168-8.222-4.843-17.079-9.121-25.505-13.666-13.84-7.467-27.612-15.17-41.64-22.274 22.925-12.821 46.212-24.922 69.283-37.468ZM514.248 336.106c22.603 12.838 45.719 24.732 68.341 37.533-21.767 12.103-44.011 24.5-66.106 35.936-.671-2.465-.951-4.759-1.136-7.289 18.357-8.605 35.904-19.211 53.781-28.763-10.858-6.163-22.033-11.757-32.896-17.903-7.078-4.004-13.918-8.914-21.344-12.21-.719-2.105-.515-5.056-.64-7.304ZM437.555 294.533l42.397 22.808c8.915 4.8 18.189 9.354 26.627 14.953-22.977 12.611-46.613 24.418-69.31 37.493l.218-7.34c6.442-1.752 12.618-6.447 18.337-9.806 12.127-7.122 24.842-15.224 38.031-20.142-7.318-4.249-15.01-7.838-22.518-11.734-11.471-5.952-22.894-12.188-33.92-18.927-.139-2.366.089-4.925.138-7.305Z"/>
  <path fill="#EC7CA4" d="M514.888 343.41c7.426 3.296 14.266 8.206 21.344 12.21 10.863 6.146 22.038 11.74 32.896 17.903-17.877 9.552-35.424 20.158-53.781 28.763-.31-19.633.318-39.246-.459-58.876ZM433.935 293.661c1.234.237 2.448.407 3.62.872-.049 2.38-.277 4.939-.138 7.305 11.026 6.739 22.449 12.975 33.92 18.927 7.508 3.896 15.2 7.485 22.518 11.734-13.189 4.918-25.904 13.02-38.031 20.142-5.719 3.359-11.895 8.054-18.337 9.806l-.218 7.34c-.551.198-1.101.39-1.671.531-2.174.538-3.832-.775-5.61-1.849.062-1.835.041-3.68.058-5.517q-.114-11.287.115-22.572l.328-.524c.424-6.006.911-39.537-.18-43.939l3.626-2.256Z"/>
  <path fill="#FCFBFC" d="M433.935 293.661c1.234.237 2.448.407 3.62.872-.049 2.38-.277 4.939-.138 7.305q.191 30.304.07 60.609l-.218 7.34c-.551.198-1.101.39-1.671.531-2.174.538-3.832-.775-5.61-1.849.062-1.835.041-3.68.058-5.517q-.114-11.287.115-22.572l.328-.524c.424-6.006.911-39.537-.18-43.939l3.626-2.256Z"/>
  <path fill="#EC7CA4" d="M508.172 335.865c1.182-.636 2.437-1.484 3.822-1.024.764.254 1.57.835 2.254 1.265.125 2.248-.079 5.199.64 7.304.777 19.63.149 39.243.459 58.876.185 2.53.465 4.824 1.136 7.289l-5.1 2.6q-2.689-1.424-5.349-2.902c.779-2.029 1.334-4.066 1.867-6.168-5.61-1.66-21.694-11.641-27.94-15.027-9.464-5.132-19.369-9.655-28.687-15.014 8.852-3.728 17.271-8.689 25.709-13.268 10.361-5.623 20.818-11.13 31.022-17.033l.167-6.898Z"/>
  <path fill="#FCFBFC" d="M508.172 335.865c1.182-.636 2.437-1.484 3.822-1.024.764.254 1.57.835 2.254 1.265.125 2.248-.079 5.199.64 7.304.777 19.63.149 39.243.459 58.876.185 2.53.465 4.824 1.136 7.289l-5.1 2.6q-2.689-1.424-5.349-2.902c.779-2.029 1.334-4.066 1.867-6.168.703-20.027.095-40.289.104-60.342l.167-6.898Z"/>
  <defs>
    <linearGradient id="h" x1="423.72687" x2="403.17432" y1="383.87161" y2="429.0145" gradientUnits="userSpaceOnUse">
      <stop offset="0" stop-color="#E991B2"/>
      <stop offset="1" stop-color="#F6B3CE"/>
    </linearGradient>
  </defs>
  <path fill="url(#h)" d="M430.941 377.963c.071 2.466.357 5.185-.395 7.567l-.057 57.694q.108 3.568.321 7.132c-21.057-11.654-41.76-24.369-63.111-35.427-.541-.623-.691-.805-.924-1.628 1.066-1.999 57.21-31.577 64.166-35.338Z"/>
  <path fill="#E2D5E3" d="M430.941 377.963c.071 2.466.357 5.185-.395 7.567-5.28 1.632-10.551 5.347-15.401 8.056-12.503 6.984-26.471 15.743-39.813 20.716 9.141 4.469 17.774 9.83 26.845 14.405 9.425 4.754 19.562 8.553 28.312 14.517q.108 3.568.321 7.132c-21.057-11.654-41.76-24.369-63.111-35.427-.541-.623-.691-.805-.924-1.628 1.066-1.999 57.21-31.577 64.166-35.338Z"/>
  <path fill="#F0AFCB" d="m514.99 418.723 44.661 23.959c6.904 3.788 14.546 7.571 21.002 12.056q-32.104 18.74-64.669 36.668c-.599-2.587-.53-5.002-.461-7.63l-.113-49.183c-.597-5.199-.373-10.637-.42-15.87Z"/>
  <path fill="#E2D5E3" d="m514.99 418.723 44.661 23.959c6.904 3.788 14.546 7.571 21.002 12.056q-32.104 18.74-64.669 36.668c-.599-2.587-.53-5.002-.461-7.63l54.689-29.245c-10.082-5.278-20.396-10.108-30.432-15.48-7.992-4.277-15.892-9.576-24.265-13.009.063 2.852-.03 5.7-.105 8.551-.597-5.199-.373-10.637-.42-15.87Z"/>
  <path fill="#EC7CA4" d="m367.011 330.708 63.298-34.791c1.091 4.402.604 37.933.18 43.939l-.328.524q-.229 11.285-.115 22.572c-.017 1.837.004 3.682-.058 5.517-6.053-3.489-12.433-6.506-18.591-9.819-9.959-5.358-19.783-10.98-29.676-16.459-5.57-3.085-11.934-5.896-17.111-9.551l2.401-1.932Z"/>
  <path fill="#E2D5E3" d="m367.011 330.708 63.298-34.791c1.091 4.402.604 37.933.18 43.939l-.328.524q-.117-19.321.018-38.641c-18.449 8.836-37.409 18.599-54.64 29.671 10.371 6.706 21.329 12.329 32.218 18.129 7.646 4.072 15.57 7.883 22.289 13.413-.017 1.837.004 3.682-.058 5.517-6.053-3.489-12.433-6.506-18.591-9.819-9.959-5.358-19.783-10.98-29.676-16.459-5.57-3.085-11.934-5.896-17.111-9.551l2.401-1.932Z"/>
  <path fill="#F0AFCB" d="M507.324 419.012c.863-.603 1.634-1.136 2.663-1.413 2.006-.54 3.329.135 5.003 1.124.047 5.233-.177 10.671.42 15.87l.113 49.183c-.069 2.628-.138 5.043.461 7.63l-5.115 2.97-3.824-2.184c-22.281-11.732-44.415-24.126-66.254-36.661 7.308-5.353 16.368-9.365 24.338-13.647l42.195-22.872Z"/>
  <path fill="#FCFBFC" d="M507.324 419.012c.863-.603 1.634-1.136 2.663-1.413 2.006-.54 3.329.135 5.003 1.124.047 5.233-.177 10.671.42 15.87l.113 49.183c-.069 2.628-.138 5.043.461 7.63l-5.115 2.97-3.824-2.184c1.735-9.209 1.062-19.159 1.05-28.508-.02-14.922-.028-29.765-.771-44.672Z"/>
  <path fill="#E2D5E3" d="M430.941 377.963q1.181-.822 2.528-1.327c1.764-.649 3.117-.029 4.678.733 22.755 12.553 45.77 24.561 68.364 37.418q-21.209 12.421-43.041 23.709c-8.645 4.574-17.942 8.755-25.975 14.35l-2.158.178-4.527-2.668q-.213-3.564-.321-7.132l.057-57.694c.752-2.382.466-5.101.395-7.567Z"/>
  <path fill="#FCFBFC" d="M430.941 377.963q1.181-.822 2.528-1.327c1.764-.649 3.117-.029 4.678.733-1.819 25.09-.05 50.353-.652 75.477l-2.158.178-4.527-2.668q-.213-3.564-.321-7.132l.057-57.694c.752-2.382.466-5.101.395-7.567Z"/>
  <path fill="#F0AFCB" d="M438.038 384.639c6.326 2.602 12.463 6.637 18.465 9.952q18.392 10.224 36.912 20.212c-6.049 3.988-12.814 7.272-19.166 10.778-12.198 6.14-24.228 12.654-36.311 19.02q-.421-29.982.1-59.962Z"/>
  <path fill="#FCFBFC" d="M359.884 334.671c13.644 6.854 26.851 14.348 40.206 21.73 10.141 5.606 20.416 10.918 30.206 17.14-12.555 7.961-25.836 14.729-38.892 21.821-10.014 5.44-19.772 11.39-30.268 15.875-3.014-2.16-6.496-3.837-9.75-5.623 4.117-9.571 2.365-54.113.887-66.245q3.827-2.313 7.611-4.698Z"/>
  <path fill="#F0AFCB" d="M361.072 343.554c10.229 4.337 19.942 9.999 29.678 15.332 8.742 4.788 17.66 9.383 26.202 14.519-6.543 3.521-12.947 7.317-19.383 11.032q-18.354 10.638-37.535 19.699.976-30.283 1.038-60.582Z"/>
  <path fill="#EC7CA4" d="M591.017 373.782c17.159-9.973 34.991-18.692 52.351-28.288 6.022-3.328 11.845-8.195 18.118-10.884 22.605 12.056 44.619 25.011 66.628 38.111-22.861 13.247-46.211 25.832-69.307 38.684-5.65-3.504-11.841-6.408-17.656-9.677l-50.134-27.946Z"/>
  <path fill="#F0AFCB" d="M586.662 375.897c9.913 3.721 26.547 14.071 36.276 19.54 9.949 5.593 22.593 11.697 31.699 18.237q-22.132 12.895-44.679 25.048c-8.358 4.592-16.724 9.696-25.315 13.803-7.743-3.644-15.232-8.549-22.749-12.712l-46.25-25.292c23.246-13.516 47.35-25.839 71.018-38.624Z"/>
  <path fill="#EC7CA4" d="M592.173 385.968q14.851 7.282 29.34 15.259c7.644 4.198 15.599 9.637 23.868 12.334-5.844 3.502-12.226 6.353-18.332 9.388q-17.525 8.89-34.854 18.157.391-16.417-.045-32.832c-.126-7.375-.559-14.96.023-22.306ZM583.528 384.538c.026.022.055.041.078.066 2.948 3.192 1.026 53.627.873 60.563q-16.859-9.729-33.921-19.098-11.121-6.254-22.609-11.804c19.05-8.438 37.402-19.554 55.579-29.727Z"/>
  <path fill="#F0AFCB" d="M586.376 292.775c24.374 12.33 47.953 26.232 71.585 39.914-8.223 4.95-16.849 9.253-25.293 13.814l-45.513 24.732c-24.338-12.081-48.091-25.567-71.747-38.926 8.905-5.961 18.707-10.665 28.124-15.759q21.584-11.596 42.844-23.775Z"/>
  <path fill="#CA5D91" d="M591.5 301.712c6.673 2.84 13.017 6.895 19.447 10.298l38.807 20.34c-7.339 2.624-14.176 6.396-21.066 9.998-11.969 6.794-24.452 12.916-36.636 19.327-.818-7.407-.324-14.936-.339-22.373l-.213-37.59Z"/>
  <path fill="#EC7CA4" d="m583.955 301.915.684.334c1.917 6.025-.04 50.897-.151 60.276-11.935-5.376-23.139-12.605-34.679-18.786-7.047-3.909-14.287-7.476-21.477-11.114 6.755-4.2 14.152-7.705 21.153-11.501q17.31-9.47 34.47-19.209Z"/>
  <defs>
    <linearGradient id="i" x1="535.66284" x2="538.81622" y1="809.81812" y2="560.38702" gradientUnits="userSpaceOnUse">
      <stop offset="0" stop-color="#07153F"/>
      <stop offset="1" stop-color="#523967"/>
    </linearGradient>
  </defs>
  <path fill="url(#i)" d="M266.752 377.945c21.069 12.477 42.485 24.296 63.871 36.22 14.163 7.897 28.278 16.148 42.67 23.605 26.162 15.405 53.127 29.556 79.797 44.051l54.696 30.273c2.008 4.208.275 33.552.641 40.815-1.602 21.953.235 45.887-.501 68.183l-.008.247 6.624-.206 5.891-.137c2.244-.481 4.772-.319 7.067-.364-.916-8.166-.463-16.618-.372-24.822l.687 2.239c7.655-2.361 14.665-10.908 22.304-12.361 3.192-.608 3.518 2.208 5.751 3.636.233.149.472.288.708.432 5.948-.486 15.494-11.71 30.709-10.873 4.003.22 6.624 1.314 9.307 4.244-.19-5.975-.585-12.142-.059-18.092l.517-.416c1.646 3.643.716 17.677.952 22.595 6.457-3.872 14.029-7.273 20.831-10.538 5.158 2.068 21.537 9.51 25.163 12.787l.666.61c3.142.431 5.422-1.244 8.063-2.684 2.728 1.239 5.203 2.896 7.805 4.366 2.177 1.23 4.524 2.321 7.046 1.597 1.461-1.583 1.507-3.66 2.068-5.732 1.193-1.143 1.435-1.192 3.064-1.538l.145 1.419.924-.096-.909.699c.084 2.93.207 5.787.589 8.697 1.551-.211 2.758-.787 4.144-1.508 5.883-3.06 11.381-7.084 17.172-10.371 7.402-4.201 15.011-7.738 22.336-12.164.597.349 1.154.609 1.834.756 1.521.33 3.4.461 4.891-.046 3.378-1.147 17.776-9.702 21.145-12.13 1.151-.829 1.222-3.12 1.46-4.439.019 11.294 1.534 85.536-.606 90.038-.251.528-.861 1.205-1.28 1.621-3.701 3.674-22.475 14.426-27.238 14.796l-.561-.838-.368.115c1.243 15.606-2.555 28.038-12.381 40.229-6.903 6.42-12.981 10.708-21.876 13.913-16.801 7.673-32.83 17.362-48.951 26.353L549.459 790.1c-12.626 7.075-24.951 15-38.073 21.13l-119.338-67.233-48.32-27.389c-4.978-2.832-9.734-6.025-14.752-8.786-.439 1.147-.392 2.658-.501 3.888l.011 5.639c-5.035.335-20.833 1.798-24.795-.013l-.291-1.261c.35-15.316.035-30.688-.042-46.01l-.425.185c-.162 1.875-.027 3.824-.003 5.708-12.035-5.302-24.339-11.865-35.608-18.649.564-29.42-.043-58.955-.191-88.379l-.282-117.624c.115-7.179-.033-14.379-.07-21.56.028-10.628.41-21.386-.171-31.996.768-6.321.154-13.404.144-19.805Zm0 0c.01 6.401.624 13.484-.144 19.805.581 10.61.199 21.368.171 31.996.037 7.181.185 14.381.07 21.56l.282 117.624c.148 29.424.755 58.959.191 88.379 11.269 6.784 23.573 13.347 35.608 18.649-.024-1.884-.159-3.833.003-5.708l.425-.185c.077 15.322.392 30.694.042 46.01l.291 1.261c3.962 1.811 19.76.348 24.795.013l-.011-5.639c-1.22-6.727-.796-22.858-.324-30.07.863-.837 1.68-.587 2.843-.63 1.786.096 2.626.544 4.136 1.473 4.461 2.745 9.563 4.848 14.274 7.159 9.098 4.462 18.213 9.19 26.567 14.954l.02 13.725 24.116-.323-.06-28.224c2.474-7.823 1.256-36.804 1.223-46.453-.01-3.075-.52-6.411-.106-9.425l.674-.229c8.42 4.073 16.034 9.578 24.448 13.722 1.105 2.258.311 5.085 1.065 7.528l1.989.232.004-.565-1.549-.346c-.847-1.635-.432-4.72-.43-6.579.756-4.58.409-9.649.436-14.292q-.021-12.584.278-25.164c1.618 6.433-1.363 36.98 2.324 39.672 1.73.42 3.216.278 4.978.125q3.819-7.23 7.263-14.646c1.384-2.989 2.493-6.637 4.337-9.353 1.048-1.542 2.481-2.625 4.254-3.2 6.579-2.133 17.897-.474 24.866-.254 9.533 11.163 12.294 25.317 19.996 37.377 1.154-2.002.809-32.112.651-36.625q5.587-.193 11.178-.207c.736-22.296-1.101-46.23.501-68.183-.366-7.263 1.367-36.607-.641-40.815l-54.696-30.273c-26.67-14.495-53.635-28.646-79.797-44.051-14.392-7.457-28.507-15.708-42.67-23.605-21.386-11.924-42.802-23.743-63.871-36.22Z"/>
  <path fill="#171B2E" d="M569.637 712.486c2.257.087 4.479 1.153 6.5 2.085 4.01 1.85 14.424 6.689 16.004 11.022-7.291-3.019-15.782-7.311-22.304-11.77l-.2-1.337ZM423.727 721.982c.169.022.341.036.509.066 8.175 1.457 58.714 29.705 66.238 35.597.941.738 1.531 1.445 2.185 2.436-1.722-.121-3.182-.682-4.72-1.428-10.13-4.911-19.964-11.285-29.754-16.874-11.437-6.529-23.403-12.651-34.458-19.797Z"/>
  <path fill="#6C6186" d="M527.815 598.049c7.655-2.361 14.665-10.908 22.304-12.361 3.192-.608 3.518 2.208 5.751 3.636.233.149.472.288.708.432-6.779 4.115-20.902 13.077-28.273 13.842l-.624-.385c-.204-1.814-.132-3.36.134-5.164Z"/>
  <path fill="#FCFBFC" d="M586.908 620.983q14.667-.229 29.332.106c-15.094 18.652-31.047 36.383-47.173 54.136-.287 14.156-.594 28.655.282 42.787l-23.659.123-.13-42.173q-12.072-13.872-24.396-27.519c-8.074-8.791-16.402-17.142-23.365-26.885 3.359-.053 6.77.014 10.119-.219l6.624-.206 5.891-.137c2.62.198 5.218.37 7.846.408l28.556 34.559c10.096-11.578 19.557-23.783 30.073-34.98ZM435.381 648q3.819-7.23 7.263-14.646c1.384-2.989 2.493-6.637 4.337-9.353 1.048-1.542 2.481-2.625 4.254-3.2 6.579-2.133 17.897-.474 24.866-.254 9.533 11.163 12.294 25.317 19.996 37.377 8.292 20.442 18.033 40.176 27.543 60.069q-12.641.049-25.281-.038c-3.797-5.491-5.955-11.468-8.337-17.653-17.975.683-36.056.23-54.043.123-2.098 5.91-4.999 11.74-7.481 17.514l-25.805-.005c3.896-9.188 8.576-18.129 12.765-27.197 6.597-14.277 12.894-28.663 19.923-42.737Z"/>
  <path fill="#1F214A" d="M462.419 641.736c4.59 2.333 16.42 31.781 19.168 38.143-5.27-.213-10.563-.149-15.837-.181q-10.173.059-20.346-.099c4.519-13.012 10.653-25.667 17.015-37.863Z"/>
  <path fill="#FCFBFC" d="M682.131 716.773c-13.799 2.898-39.697 2.334-52.312-4.109-11.339-5.792-19.574-16.113-23.419-28.186-3.983-12.505-2.449-26.891 3.628-38.473q.533-1.012 1.115-1.996t1.212-1.939q.629-.954 1.305-1.877.676-.922 1.397-1.81.72-.888 1.483-1.739.764-.852 1.568-1.665.804-.812 1.647-1.585.843-.772 1.724-1.502.88-.73 1.795-1.416.915-.685 1.863-1.325.947-.64 1.925-1.233.978-.592 1.984-1.136 1.006-.543 2.038-1.037 1.031-.494 2.086-.936 1.054-.442 2.129-.832 1.075-.39 2.168-.726c9.439-2.814 33.44-2.746 43.152-.915q3.136.566 6.136 1.64 2.999 1.074 5.782 2.626c14.896 8.324 19.538 20.569 23.851 36.029 1.243 15.606-2.555 28.038-12.381 40.229-6.903 6.42-12.981 10.708-21.876 13.913Z"/>
  <path fill="#1F214A" d="M655.592 643.719c10.121-.362 21.389-1.381 29.549 5.899 5.246 4.679 7.848 11.332 8.072 18.273.235 7.265-2.041 14.871-7.155 20.176-5.457 5.662-11.502 6.501-18.933 6.791-10.009.175-22.773 1.808-30.798-5.452-5.358-4.848-8.038-12.138-8.325-19.247-.286-7.098 1.653-14.285 6.632-19.537 5.883-6.206 12.966-6.636 20.958-6.903Z"/>
  <path fill="#59D5C8" d="M277.61 398.29c21.707 11.631 42.866 24.258 64.466 36.068-11.557 7.163-23.842 13.487-35.776 20.007-8.736 4.773-17.918 10.476-27.173 14.072l-1.079.05c-1.291-1.896-.482-62.129-.438-70.197Z"/>
  <defs>
    <linearGradient id="j" x1="483.66574" x2="426.90601" y1="536.51239" y2="522.92102" gradientUnits="userSpaceOnUse">
      <stop offset="0" stop-color="#507D95"/>
      <stop offset="1" stop-color="#5391A3"/>
    </linearGradient>
  </defs>
  <path fill="url(#j)" d="M429.785 483.637c21.707 10.689 43.417 22.22 64.194 34.606-1.38.952-3.033 1.789-4.136 3.033-.318.425-37.135 22.38-40.385 24.212-6.71 3.782-14.903 7.213-20.793 12.178.285-12.855-.356-26.093.76-38.873-.522-11.58-.046-23.561.36-35.156Z"/>
  <defs>
    <linearGradient id="k" x1="463.22717" x2="453.48447" y1="524.9173" y2="480.01312" gradientUnits="userSpaceOnUse">
      <stop offset="0" stop-color="#59A6B4"/>
      <stop offset="1" stop-color="#63E7E0"/>
    </linearGradient>
  </defs>
  <path fill="url(#k)" d="M429.785 483.637c21.707 10.689 43.417 22.22 64.194 34.606-1.38.952-3.033 1.789-4.136 3.033-5.574-4.519-18.242-9.472-25.153-13.048-9.841-5.092-19.359-10.807-29.267-15.765-.177 15.745.123 31.414-.688 47.152l.11-.141-.315.231c-.467-9.311 2.064-20.404-.418-29.287l-.909.333.812-.407-2.767-.619c-2.152 2.13-1.267 23.247-1.338 27.719-1.086-5.604.115-12.242-.426-18.065l-.059-.586c-.522-11.58-.046-23.561.36-35.156Z"/>
  <defs>
    <linearGradient id="l" x1="484.87897" x2="462.69751" y1="602.03851" y2="538.59442" gradientUnits="userSpaceOnUse">
      <stop offset="0" stop-color="#445B79"/>
      <stop offset="1" stop-color="#587F96"/>
    </linearGradient>
  </defs>
  <path fill="url(#l)" d="M493.979 518.243c.992.719 1.577.93 2.074 2.094 1.33 10.382.373 24.627.38 35.316.01 14.172.838 30.084-.045 44.062-.24 1.45-.523 2.903-.652 4.367-.02-1.481.192-3.307-.872-4.458-2.249-2.434-6.652-3.805-9.485-5.608q-16.001-10.381-32.204-20.446c-4.545-2.765-19.551-10.524-22.481-13.535-.594-.811-1.305-1.472-2.017-2.179l-.012-.19c5.89-4.965 14.083-8.396 20.793-12.178 3.25-1.832 40.067-23.787 40.385-24.212 1.103-1.244 2.756-2.081 4.136-3.033Z"/>
  <path fill="#56A0AF" d="M493.979 518.243c.992.719 1.577.93 2.074 2.094-.114 1.961-.237 3.919-.258 5.884-10.829 4.94-58.359 34.358-65.101 33.814-.594-.811-1.305-1.472-2.017-2.179l-.012-.19c5.89-4.965 14.083-8.396 20.793-12.178 3.25-1.832 40.067-23.787 40.385-24.212 1.103-1.244 2.756-2.081 4.136-3.033Z"/>
  <path fill="#59D5C8" d="M350.384 484.049c-.137-6.446-.685-40.849.28-44.527l.722.106c2.261 1.113 4.447 2.216 6.557 3.606 20.588 9.879 39.863 22.366 60.052 32.958l1.532.926c2.297 1.323 4.532 2.545 6.365 4.507-4.954 3.234-10.576 5.396-15.828 8.102-10.664 5.495-21.123 11.412-31.731 17.018-6.999 3.699-14.29 6.859-20.915 11.223l-7.537 1.594-.331-.272-.061-.128c.105-1.657.025-2.85-.416-4.455.344-.371.82-.653 1.032-1.112 1.092-2.369.286-25.161.279-29.546Z"/>
  <path fill="#80EEF2" d="M351.386 439.628c2.261 1.113 4.447 2.216 6.557 3.606-1.188.536-2.536.458-3.666 1.237-2.242 1.547-2.468 4.508-3.047 6.999-.275-3.386-1.212-8.679.156-11.842ZM417.995 476.192l1.532.926c2.297 1.323 4.532 2.545 6.365 4.507-4.954 3.234-10.576 5.396-15.828 8.102-10.664 5.495-21.123 11.412-31.731 17.018-6.999 3.699-14.29 6.859-20.915 11.223l-7.537 1.594-.331-.272-.061-.128c.105-1.657.025-2.85-.416-4.455.344-.371.82-.653 1.032-1.112 1.092-2.369.286-25.161.279-29.546 2.735-1.152 2.171-2.647 4.051-3.337.366 9.547-.438 19.006.153 28.605 12.976-7.202 26.336-14.026 39.616-20.646 7.418-3.697 17.416-7.435 23.791-12.479Z"/>
  <path fill="#171B2E" d="m417.995 476.192 1.532.926c-14.147 8.237-28.838 15.651-43.318 23.288-5.559 2.932-10.975 6.409-16.553 9.207-2.265 1.136-4.892 2.403-7.418 2.705l-.242-.559c.829-1.019 1.49-1.69 2.592-2.442 12.976-7.202 26.336-14.026 39.616-20.646 7.418-3.697 17.416-7.435 23.791-12.479Z"/>
  <defs>
    <linearGradient id="m" x1="495.34366" x2="416.17432" y1="656.6911" y2="581.50525" gradientUnits="userSpaceOnUse">
      <stop offset="0" stop-color="#38456B"/>
      <stop offset="1" stop-color="#3E657C"/>
    </linearGradient>
  </defs>
  <path fill="url(#m)" d="M428.677 557.856c.712.707 1.423 1.368 2.017 2.179 2.93 3.011 17.936 10.77 22.481 13.535q16.203 10.065 32.204 20.446c2.833 1.803 7.236 3.174 9.485 5.608 1.064 1.151.852 2.977.872 4.458.129-1.464.412-2.917.652-4.367.035 7.029-.483 14.627.36 21.584.158 4.513.503 34.623-.651 36.625-7.702-12.06-10.463-26.214-19.996-37.377-6.969-.22-18.287-1.879-24.866.254-1.773.575-3.206 1.658-4.254 3.2-1.844 2.716-2.953 6.364-4.337 9.353Q439.2 640.77 435.381 648c-1.762.153-3.248.295-4.978-.125-3.687-2.692-.706-33.239-2.324-39.672-.362-5.416-.046-11.074-.035-16.516.018-8.675-.113-17.38.266-26.047l.367-7.784Z"/>
  <path fill="#51869B" d="M428.677 557.856c.712.707 1.423 1.368 2.017 2.179 2.93 3.011 17.936 10.77 22.481 13.535q16.203 10.065 32.204 20.446c2.833 1.803 7.236 3.174 9.485 5.608 1.064 1.151.852 2.977.872 4.458-20.383-10.036-40.029-21.091-59.724-32.404.326 6.53 1.263 14.265-.172 20.646l-1.355-21.665c-2.021-1.363-4.867-2.964-6.175-5.019l.367-7.784Z"/>
  <path fill="#59D5C8" d="M342.076 434.358c1.884.749 4.949 1.958 5.921 3.901.242.485.291 1.031.371 1.554-1.39 8.465-.658 17.546-.591 26.097l.24 44.166c.026 1.838-.086 3.123 1.056 4.631l-2.063.518-2.116 1.31-.223-.055-.591.62c-16.416 10.212-34.203 18.726-51.203 27.971-4.478 2.435-9.523 4.527-13.773 7.268-.903.583-1.151.867-1.572 1.822q-.158-6.384.036-12.768c-.772-22.098-.265-44.561.01-66.685l-.042-.53c-.188-2.622-.183-3.691 1.591-5.741 9.255-3.596 18.437-9.299 27.173-14.072 11.934-6.52 24.219-12.844 35.776-20.007Z"/>
  <path fill="#80EEF2" d="M342.076 434.358c1.884.749 4.949 1.958 5.921 3.901.242.485.291 1.031.371 1.554-14.568 6.762-28.329 15.493-42.428 23.17-7.203 3.922-15.952 7.151-22.511 11.945l-.114.528.407.297c4.93.747 10.651 4.956 15.022 7.435l30.655 17.208c5.706 3.194 12.386 7.827 18.618 9.68.026 1.838-.086 3.123 1.056 4.631l-2.063.518-2.116 1.31-.223-.055c-1.341.063-2.584.081-3.85-.43-7.936-3.207-15.464-8.265-22.92-12.451l-39.74-21.97c-.01-2.372.01-4.603-.583-6.921l-.042-.53c-.188-2.622-.183-3.691 1.591-5.741 9.255-3.596 18.437-9.299 27.173-14.072 11.934-6.52 24.219-12.844 35.776-20.007Z"/>
  <path fill="#171B2E" d="M283.722 475.753c4.93.747 10.651 4.956 15.022 7.435l30.655 17.208c5.706 3.194 12.386 7.827 18.618 9.68.026 1.838-.086 3.123 1.056 4.631l-2.063.518.342-1.532c-1.021-2.348-55.521-31.906-63.63-37.94Z"/>
  <defs>
    <linearGradient id="n" x1="310.04492" x2="285.03696" y1="536.15326" y2="480.08438" gradientUnits="userSpaceOnUse">
      <stop offset="0" stop-color="#42A0A4"/>
      <stop offset="1" stop-color="#51D5C6"/>
    </linearGradient>
  </defs>
  <path fill="url(#n)" d="M277.578 474.708c.593 2.318.573 4.549.583 6.921l39.74 21.97c7.456 4.186 14.984 9.244 22.92 12.451 1.266.511 2.509.493 3.85.43l-.591.62c-16.416 10.212-34.203 18.726-51.203 27.971-4.478 2.435-9.523 4.527-13.773 7.268-.903.583-1.151.867-1.572 1.822q-.158-6.384.036-12.768c-.772-22.098-.265-44.561.01-66.685Z"/>
  <path fill="#171B2E" d="M277.963 552.049c10.405-6.162 21.068-11.794 31.538-17.834 9.916-5.72 20.155-12.749 30.881-16.752 1.324-.494 2.308-.501 3.698-.363-16.416 10.212-34.203 18.726-51.203 27.971-4.478 2.435-9.523 4.527-13.773 7.268-.903.583-1.151.867-1.572 1.822q-.158-6.384.036-12.768c.441 3.454.296 7.165.395 10.656Z"/>
  <path fill="#FCFBFC" d="M357.418 517.968c6.625-4.364 13.916-7.524 20.915-11.223 10.608-5.606 21.067-11.523 31.731-17.018 5.252-2.706 10.874-4.868 15.828-8.102-.218 17.094.232 34.232.571 51.325.156 7.884.879 16.163.373 24.014.177 2.722.321 5.397.259 8.127q-.192 28.925-.084 57.85c.004 6.944-1.048 18.229.354 24.718-.002 1.859-.417 4.944.43 6.579l1.549.346-.004.565-1.989-.232c-.754-2.443.04-5.27-1.065-7.528-8.414-4.144-16.028-9.649-24.448-13.722l-.674.229c-.414 3.014.096 6.35.106 9.425.033 9.649 1.251 38.63-1.223 46.453l.06 28.224-24.116.323-.02-13.725c-8.354-5.764-17.469-10.492-26.567-14.954-4.711-2.311-9.813-4.414-14.274-7.159-1.51-.929-2.35-1.377-4.136-1.473-1.163.043-1.98-.207-2.843.63-.472 7.212-.896 23.343.324 30.07l.011 5.639c-5.035.335-20.833 1.798-24.795-.013l-.291-1.261c.35-15.316.035-30.688-.042-46.01l-.425.185c-.023-1.111.069-2.47-.168-3.548-.071-.321-.35-1.108-.612-1.422-1.766-2.112-19.92-11.017-24.161-13.39-.135-3.131-.097-6.268-.101-9.402l.105-.738c-.622-12.239-.434-24.561-.462-36.814q-.142-21.607.032-43.213c-.208-2.463-.037-5.081-.034-7.562.421-.955.669-1.239 1.572-1.822 4.25-2.741 9.295-4.833 13.773-7.268 17-9.245 34.787-17.759 51.203-27.971l.591-.62.223.055 2.116-1.31 2.063-.518c.441 1.605.521 2.798.416 4.455l.061.128.331.272 7.537-1.594Z"/>
  <path fill="#1F214A" d="M330.994 681.01c15.028-.121 30.047-.563 45.074-.498l-.097 24.084c-8.354-5.764-17.469-10.492-26.567-14.954-4.711-2.311-9.813-4.414-14.274-7.159-1.51-.929-2.35-1.377-4.136-1.473Z"/>
  <path fill="#325873" d="M278.5 622.15c7.738-3.952 33.966-7.786 43.041-7.648 4.339.066 8.557 1.479 12.888 1.502 4.459.023 9.121-1.599 13.592-1.345 1.415 2.159.129 8.167.786 11.111.031.141.068.282.102.423.102 6.02-2.168 27.543.65 31.481 6.532-.197 13.721-.628 20.201.24-13.656.557-27.722-.982-41.295.625.105-12.531-.272-25.098-.281-37.638-8.23-.145-16.477.031-24.708.099l.001 34.487q-.141 7.288-.119 14.578l-.425.185c-.023-1.111.069-2.47-.168-3.548-.071-.321-.35-1.108-.612-1.422-1.766-2.112-19.92-11.017-24.161-13.39-.135-3.131-.097-6.268-.101-9.402l.105-.738c1.857-4.566.531-14.256.504-19.6Z"/>
  <defs>
    <linearGradient id="o" x1="398.99969" x2="379.77286" y1="650.99988" y2="578.21063" gradientUnits="userSpaceOnUse">
      <stop offset="0" stop-color="#2B4466"/>
      <stop offset="1" stop-color="#3D7788"/>
    </linearGradient>
  </defs>
  <path fill="url(#o)" d="M427.095 565.091q-.192 28.925-.084 57.85c.004 6.944-1.048 18.229.354 24.718-.002 1.859-.417 4.944.43 6.579l1.549.346-.004.565-1.989-.232c-.754-2.443.04-5.27-1.065-7.528-8.414-4.144-16.028-9.649-24.448-13.722l-.674.229c-.414 3.014.096 6.35.106 9.425.033 9.649 1.251 38.63-1.223 46.453l-.009-68.904c-7.9.041-15.783.074-23.679-.241-1.403 11.152-.176 25.878-.105 37.341l-6.494-.056c-6.48-.868-13.669-.437-20.201-.24 2.606-6.779.944-44.556.809-54.8.9.418.613.217 1.282.738 3.932 3.066 10.46 8.203 15.369 9.071-4.633-3.36-9.823-5.872-14.583-9.088 8.243-2.749 16.147-7.208 23.832-11.231q15.928-8.36 31.67-17.065c6.06-3.377 12.633-7.904 19.157-10.208Z"/>
  <defs>
    <linearGradient id="p" x1="318.43344" x2="307.26886" y1="618.18311" y2="528.44293" gradientUnits="userSpaceOnUse">
      <stop offset="0" stop-color="#306678"/>
      <stop offset="1" stop-color="#43A3A4"/>
    </linearGradient>
  </defs>
  <path fill="url(#p)" d="M349.073 514.707c.441 1.605.521 2.798.416 4.455l.061.128.331.272.304.491c.604 20.349-.846 40.778-.104 61.129-.076 7.082 1.28 14.732.287 21.692.135 10.244 1.797 48.021-.809 54.8-2.818-3.938-.548-25.461-.65-31.481-.034-.141-.071-.282-.102-.423-.657-2.944.629-8.952-.786-11.111-4.471-.254-9.133 1.368-13.592 1.345-4.331-.023-8.549-1.436-12.888-1.502-9.075-.138-35.303 3.696-43.041 7.648.027 5.344 1.353 15.034-.504 19.6-.622-12.239-.434-24.561-.462-36.814q-.142-21.607.032-43.213c-.208-2.463-.037-5.081-.034-7.562.421-.955.669-1.239 1.572-1.822 4.25-2.741 9.295-4.833 13.773-7.268 17-9.245 34.787-17.759 51.203-27.971l.591-.62.223.055 2.116-1.31 2.063-.518Z"/>
  <path fill="#171B2E" d="M348.16 521.775c.255-1.368.409-1.475 1.39-2.485l.331.272.304.491c.604 20.349-.846 40.778-.104 61.129-.076 7.082 1.28 14.732.287 21.692.135 10.244 1.797 48.021-.809 54.8-2.818-3.938-.548-25.461-.65-31.481.433-9.908-.689-19.699-.607-29.576l.15-44.425c.015-10.114.23-20.318-.292-30.417Z"/>
  <path fill="#56A0AF" d="M349.073 514.707c.441 1.605.521 2.798.416 4.455l.061.128c-.981 1.01-1.135 1.117-1.39 2.485-2.297 2.33-6.383 4.085-9.237 5.794-19.441 11.639-39.811 21.545-59.483 32.758 6.127 4.106 12.772 7.587 19.178 11.248q15.428 8.69 30.635 17.76c4.116 2.434 8.928 4.356 12.668 7.288 1.428 1.12 2.209 2.021 2.726 3.793l-.369 1.078c-1.758.811-2.993.734-4.8.042-4.562-1.748-8.575-5.124-12.863-7.458-8.407-4.575-16.94-8.932-25.297-13.596-7.71-4.302-15.131-9.014-23.169-12.703-.129-1.98-.101-4.132-.583-6.056-.208-2.463-.037-5.081-.034-7.562.421-.955.669-1.239 1.572-1.822 4.25-2.741 9.295-4.833 13.773-7.268 17-9.245 34.787-17.759 51.203-27.971l.591-.62.223.055 2.116-1.31 2.063-.518Z"/>
  <path fill="#FCFBFC" d="M349.073 514.707c.441 1.605.521 2.798.416 4.455-1.969-.264-3.244-1.252-4.595-2.627l2.116-1.31 2.063-.518Z"/>
  <path fill="#56A0AF" d="M357.418 517.968c6.625-4.364 13.916-7.524 20.915-11.223 10.608-5.606 21.067-11.523 31.731-17.018 5.252-2.706 10.874-4.868 15.828-8.102-.218 17.094.232 34.232.571 51.325.156 7.884.879 16.163.373 24.014.177 2.722.321 5.397.259 8.127-6.524 2.304-13.097 6.831-19.157 10.208q-15.742 8.705-31.67 17.065c-7.685 4.023-15.589 8.482-23.832 11.231 4.76 3.216 9.95 5.728 14.583 9.088-4.909-.868-11.437-6.005-15.369-9.071-.669-.521-.382-.32-1.282-.738.993-6.96-.363-14.61-.287-21.692-.742-20.351.708-40.78.104-61.129l-.304-.491 7.537-1.594Z"/>
  <path fill="#51869B" d="M358.253 519.082c.51-.078 1.016-.286 1.529-.234 4.691.476 58.776 33.188 67.054 38.116.177 2.722.321 5.397.259 8.127-6.524 2.304-13.097 6.831-19.157 10.208q-15.742 8.705-31.67 17.065c-7.685 4.023-15.589 8.482-23.832 11.231 4.76 3.216 9.95 5.728 14.583 9.088-4.909-.868-11.437-6.005-15.369-9.071-.669-.521-.382-.32-1.282-.738.993-6.96-.363-14.61-.287-21.692 1.514 4.523-.078 13.281 2.178 16.523l1.456.163c7.328-3.582 63.17-33.586 65.973-36.87-1.436-.723-3.834-1.483-4.62-2.851 1.36.213 3.046 1.245 4.322 1.84 1.221-1.045 2.512-2.013 3.779-3-7.004-3.339-12.697-8.339-19.355-12.171-15.088-8.685-30.73-16.633-45.561-25.734Z"/>
  <defs>
    <linearGradient id="q" x1="388.35684" x2="378.03424" y1="591.0741" y2="521.1723" gradientUnits="userSpaceOnUse">
      <stop offset="0" stop-color="#357380"/>
      <stop offset="1" stop-color="#44A4A4"/>
    </linearGradient>
  </defs>
  <path fill="url(#q)" d="M355.064 523.889c5.843 1.861 22.961 13.014 29.306 16.747 10.152 5.973 20.571 11.511 30.698 17.511.786 1.368 3.184 2.128 4.62 2.851-2.803 3.284-58.645 33.288-65.973 36.87.242-7.25.018-14.572.247-21.85.548-17.377 1.471-34.736 1.102-52.129Z"/>
</svg>